<svg width="31" height="24" viewBox="0 0 31 24" fill="none" xmlns="http://www.w3.org/2000/svg">
<path d="M1.27265 11.9965C1.27211 13.8958 1.91381 15.7629 3.1353 17.416C4.3568 19.0691 6.11646 20.4519 8.24302 21.4298C10.3696 22.4077 12.7906 22.9474 15.2704 22.9963C17.7502 23.0453 20.2043 22.6019 22.3939 21.7092L27.0981 22.9098C27.4876 23.0092 27.9055 23.0237 28.3051 22.9515C28.7047 22.8793 29.0701 22.7233 29.3605 22.501C29.6508 22.2787 29.8545 21.9989 29.9488 21.693C30.0431 21.387 30.0243 21.067 29.8944 20.7688L28.3263 17.167C29.3512 15.6917 29.9237 14.0569 30.0002 12.3868C30.0767 10.7168 29.6553 9.05532 28.768 7.52856C27.8807 6.00181 26.5508 4.6499 24.8792 3.57544C23.2075 2.50098 21.2382 1.73222 19.1206 1.3275C17.003 0.922789 14.7928 0.892761 12.6578 1.2397C10.5228 1.58664 8.5191 2.30142 6.79876 3.3298C5.07842 4.35817 3.68667 5.67311 2.72916 7.1748C1.77165 8.67648 1.27355 10.3255 1.27265 11.9965ZM3.48314 11.9965C3.48367 10.5687 3.91323 9.15999 4.73857 7.87955C5.56392 6.59911 6.76294 5.4812 8.24286 4.61233C9.72279 3.74346 11.4439 3.1469 13.2732 2.86883C15.1024 2.59075 16.9906 2.6386 18.7919 3.00868C20.5931 3.37876 22.2589 4.06114 23.6606 5.00304C25.0622 5.94493 26.1621 7.12109 26.875 8.44052C27.588 9.75994 27.8949 11.1873 27.7722 12.6121C27.6494 14.0369 27.1001 15.4209 26.1669 16.6572C26.0886 16.761 26.04 16.8763 26.0242 16.9956C26.0085 17.1148 26.0261 17.2353 26.0757 17.349L27.7985 21.3051L22.6315 19.9861C22.519 19.9567 22.4009 19.9417 22.282 19.9416C22.0879 19.9419 21.8973 19.9813 21.7294 20.0559C19.8811 20.8746 17.7838 21.3062 15.6485 21.3073C13.5132 21.3083 11.4152 20.8787 9.56562 20.0618C7.71602 19.2448 6.18007 18.0693 5.11231 16.6534C4.04455 15.2376 3.48265 13.6314 3.48314 11.9965Z" fill="white" stroke="white"/>
</svg>
