<svg width="44" height="45" viewBox="0 0 44 45" fill="none" xmlns="http://www.w3.org/2000/svg">
<g filter="url(#filter0_f_509_737)">
<rect x="5" y="13.9143" width="33.4168" height="12.5872" rx="4" stroke="white" stroke-width="2"/>
<path d="M37.7609 22.234C37.7609 31.8162 30.5118 39.468 21.7083 39.468C12.9048 39.468 5.65576 31.8162 5.65576 22.234C5.65576 12.6518 12.9048 5 21.7083 5C30.5118 5 37.7609 12.6518 37.7609 22.234Z" stroke="white" stroke-width="2"/>
<rect x="8.93506" y="16.3457" width="11.1173" height="8.5352" rx="4" stroke="white" stroke-width="2"/>
<rect x="24.02" y="16.3457" width="11.1173" height="8.5352" rx="4" stroke="white" stroke-width="2"/>
</g>
<defs>
<filter id="filter0_f_509_737" x="0" y="0" width="43.417" height="44.468" filterUnits="userSpaceOnUse" color-interpolation-filters="sRGB">
<feFlood flood-opacity="0" result="BackgroundImageFix"/>
<feBlend mode="normal" in="SourceGraphic" in2="BackgroundImageFix" result="shape"/>
<feGaussianBlur stdDeviation="2" result="effect1_foregroundBlur_509_737"/>
</filter>
</defs>
</svg>
<svg width="33" height="32" viewBox="0 0 33 32" fill="none" xmlns="http://www.w3.org/2000/svg">
<path d="M14.9046 3.07308C15.3653 1.64231 17.3711 1.64231 17.8318 3.07308L20.1687 10.3313C20.3746 10.9712 20.9655 11.4044 21.6322 11.4044H29.1946C30.6853 11.4044 31.3051 13.3295 30.0991 14.2137L23.9809 18.6996C23.4416 19.095 23.216 19.796 23.422 20.4359L25.7589 27.6942C26.2195 29.1249 24.5968 30.3146 23.3908 29.4304L17.2727 24.9446C16.7334 24.5491 16.003 24.5491 15.4636 24.9446L9.34556 29.4304C8.13955 30.3146 6.51685 29.1249 6.97751 27.6942L9.31442 20.4359C9.52042 19.796 9.29474 19.095 8.7554 18.6996L2.6373 14.2137C1.43126 13.3295 2.05108 11.4044 3.54181 11.4044H11.1042C11.7709 11.4044 12.3617 10.9712 12.5677 10.3313L14.9046 3.07308Z" stroke="white" stroke-width="3" stroke-linecap="round" stroke-linejoin="round"/>
</svg>
