<svg width="46" height="38" viewBox="0 0 46 38" fill="none" xmlns="http://www.w3.org/2000/svg">
<path d="M7.22957 36L40.4047 34.4247L41.4995 34.3148C41.6396 34.3007 41.7752 34.2572 41.8973 34.1872L42.7398 33.7038C42.8169 33.6595 42.8878 33.6051 42.9506 33.5421L43.3862 33.1047C43.4679 33.0227 43.5348 32.927 43.5838 32.8221L43.9061 32.1316C43.968 31.9991 44 31.8548 44 31.7086V23.3977L43.516 16.7881C43.5118 16.7313 43.5028 16.6749 43.489 16.6196L43.201 15.4626C43.1889 15.4142 43.1733 15.3669 43.1542 15.3209L43.0888 15.1632C43.0429 15.0527 42.9777 14.9514 42.8961 14.864L42.5292 14.4711L42.3385 14.2413C42.2487 14.1331 42.1372 14.0451 42.0111 13.983L41.5486 13.755M7.22957 36H6.15911C6.00331 36 5.84967 35.9636 5.71044 35.8937L4.82591 35.4496C4.68707 35.3799 4.56638 35.2788 4.47341 35.1544L3.32955 33.623C3.20867 33.4611 3.13963 33.2665 3.13153 33.0647L2 4.88803V4.06748C2 3.83423 2.08153 3.60832 2.2305 3.42884L2.32685 3.31274L2.61824 2.92263C2.74736 2.74977 2.92891 2.62331 3.1358 2.56212L4.77821 2.07637M7.22957 36L9.09134 34.5835C9.20849 34.4944 9.30452 34.3805 9.37257 34.25L10.0513 32.9482C10.1299 32.7973 10.1688 32.6289 10.1642 32.4588L9.69111 14.9785C9.68455 14.736 9.76634 14.4994 9.92124 14.3128L10.5532 13.5513C10.6249 13.465 10.7106 13.3913 10.8067 13.3334L11.9689 12.6332M11.9689 12.6332L28.8016 13.2896L41.5486 13.755M11.9689 12.6332L10.0159 12.8746C9.90238 12.8886 9.79211 12.922 9.68988 12.9733L8.99721 13.3211C8.7084 13.4661 8.50747 13.7417 8.45778 14.061L8.38687 14.5167C8.378 14.5737 8.37408 14.6313 8.37515 14.689L8.69608 31.9614C8.69892 32.1138 8.66687 32.2649 8.60238 32.403L8.30856 33.0324C8.2438 33.1711 8.14804 33.2931 8.02869 33.389L7.44687 33.8563C7.30471 33.9705 7.13404 34.0437 6.95331 34.0679L6.56911 34.1193C6.36101 34.1472 6.14942 34.1088 5.96434 34.0097L5.47527 33.7478C5.33926 33.675 5.22194 33.5716 5.13251 33.4459L4.78665 32.9598C4.67449 32.8021 4.61048 32.6152 4.60238 32.4219L3.40662 3.8623C3.39541 3.5947 3.49203 3.33378 3.67481 3.13801L4.12451 2.65637L4.48507 2.29434C4.67272 2.10592 4.9277 2 5.19362 2H8.37354L11.7459 2.129C11.7856 2.13051 11.8213 2.12994 11.861 2.12729C12.5152 2.08354 18.7598 1.75321 20.3852 4.95367M20.3852 4.95367L21.827 6.77368C22.0017 6.99409 22.26 7.13074 22.5405 7.15067C24.4922 7.28934 32.4365 7.86539 35.9922 8.30116C40.0625 8.8 40.4047 10.5 41.5486 13.755M20.3852 4.95367L17.75 2.84445" stroke="white" stroke-width="4"/>
</svg>
