<svg width="41" height="58" viewBox="0 0 41 58" fill="none" xmlns="http://www.w3.org/2000/svg">
<rect x="3.24365" y="11.5768" width="33.9935" height="15.4967" rx="2.5" stroke="white" stroke-width="3"/>
<path d="M38.9811 19.6747C38.9811 29.6725 30.631 37.8493 20.2405 37.8493C9.85005 37.8493 1.5 29.6725 1.5 19.6747C1.5 9.67689 9.85005 1.5 20.2405 1.5C30.631 1.5 38.9811 9.67689 38.9811 19.6747Z" stroke="white" stroke-width="3"/>
<path d="M16.2727 38.6465L16.1722 54.4191" stroke="white" stroke-width="3" stroke-linecap="round"/>
<path d="M23.7312 38.3546L23.6307 54.1273" stroke="white" stroke-width="3" stroke-linecap="round"/>
<path d="M16.457 54.637L16.5557 54.7275C18.5593 56.5659 21.6479 56.5262 23.6035 54.637V54.637" stroke="white" stroke-width="3" stroke-linecap="round"/>
<path d="M11.8328 16.8029L28.648 16.8029" stroke="white" stroke-width="3" stroke-linecap="round"/>
<path d="M14.355 21.8475L26.1256 21.8475" stroke="white" stroke-width="3" stroke-linecap="round"/>
<path d="M8.46973 11.8108C15.6162 3.77112 25.7053 4.61187 32.8518 11.8108M32.8518 26.4244C26.9665 36.1404 13.5143 36.1404 8.46973 26.4244" stroke="white" stroke-width="3"/>
</svg>
