<svg width="35" height="26" viewBox="0 0 35 26" fill="none" xmlns="http://www.w3.org/2000/svg">
<path d="M33.8849 11.7406L21.8522 1.30603C21.684 1.16002 21.4697 1.06053 21.2363 1.02016C21.0029 0.979787 20.7609 1.00034 20.541 1.07923C20.3211 1.15811 20.1331 1.29177 20.0008 1.46332C19.8684 1.63487 19.7978 1.83659 19.7976 2.04297V7.30589C15.896 7.59545 11.5868 9.25194 8.04169 11.8593C3.77309 15.0001 1.11537 19.0474 0.557351 23.2551C0.513745 23.5822 0.590233 23.9129 0.775931 24.2002C0.96163 24.4874 1.24708 24.7166 1.59165 24.855C1.93622 24.9934 2.32236 25.0341 2.69511 24.9712C3.06787 24.9083 3.40825 24.745 3.66781 24.5046C5.3223 22.9773 11.2093 18.1474 19.7976 17.7222V22.9121C19.7978 23.1184 19.8684 23.3202 20.0008 23.4917C20.1331 23.6632 20.3211 23.7969 20.541 23.8758C20.7609 23.9547 21.0029 23.9752 21.2363 23.9349C21.4697 23.8945 21.684 23.795 21.8522 23.649L33.8849 13.2145C34.11 13.0188 34.2363 12.7538 34.2363 12.4775C34.2363 12.2012 34.11 11.9362 33.8849 11.7406ZM22.2042 20.3934V16.6513C22.2042 16.3746 22.0774 16.1092 21.8518 15.9135C21.6261 15.7178 21.32 15.6079 21.0009 15.6079C16.7774 15.6079 12.6638 16.5639 8.77419 18.4513C6.79322 19.4168 4.9475 20.5775 3.27373 21.9103C4.14611 18.8008 6.34508 15.844 9.59842 13.4505C13.0909 10.8823 17.3535 9.34715 21.0009 9.34715C21.32 9.34715 21.6261 9.23721 21.8518 9.04153C22.0774 8.84584 22.2042 8.58044 22.2042 8.3037V4.56291L31.3325 12.4775L22.2042 20.3934Z" fill="white" stroke="white" stroke-width="0.6"/>
</svg>
