<svg width="43" height="47" viewBox="0 0 43 47" fill="none" xmlns="http://www.w3.org/2000/svg">
<g filter="url(#filter0_f_509_710)">
<path d="M20.6433 6.56771L15.8364 15.3643C15.7136 15.589 15.5093 15.7581 15.2655 15.8366L6.37125 18.7012C5.70729 18.9151 5.46074 19.7259 5.89326 20.2731L12.2509 28.3175C12.3814 28.4826 12.4565 28.6846 12.4655 28.8948L12.9222 39.5594C12.952 40.2567 13.6689 40.7097 14.3115 40.4374L22.7066 36.8796C22.956 36.774 23.2376 36.774 23.487 36.8796L31.6864 40.3544C32.3788 40.6479 33.1352 40.1007 33.0732 39.3512L32.1744 28.4965C32.1555 28.2677 32.2158 28.0394 32.3453 27.8499L37.2568 20.6595C37.6302 20.1129 37.379 19.3609 36.7521 19.1484L28.2454 16.2644C28.0145 16.1861 27.8202 16.0261 27.6989 15.8146L22.3884 6.54994C21.9997 5.87178 21.0181 5.88178 20.6433 6.56771Z" stroke="white" stroke-width="3"/>
</g>
<path d="M19.6799 6.26992L13.7883 15.3927C13.6546 15.5998 13.4491 15.7501 13.2112 15.815L2.59944 18.707C1.87309 18.9049 1.61769 19.8042 2.13157 20.3544L9.557 28.3044C9.71809 28.4769 9.81299 28.7007 9.82492 28.9364L10.3674 39.6545C10.4013 40.3244 11.0722 40.7717 11.7037 40.5452L22.0495 36.8353C22.2678 36.7571 22.5064 36.7571 22.7246 36.8353L32.8521 40.4669C33.5429 40.7146 34.2564 40.1586 34.1849 39.4282L33.1205 28.5501C33.0949 28.2891 33.1729 28.0286 33.3376 27.8245L39.0527 20.7449C39.5023 20.188 39.2383 19.3529 38.5503 19.1556L28.3971 16.2429C28.1718 16.1783 27.9764 16.0366 27.8449 15.8425L21.3478 6.25158C20.9459 5.65825 20.0687 5.66789 19.6799 6.26992Z" stroke="white" stroke-width="3"/>
<defs>
<filter id="filter0_f_509_710" x="0.176758" y="0.547119" width="42.7554" height="45.4719" filterUnits="userSpaceOnUse" color-interpolation-filters="sRGB">
<feFlood flood-opacity="0" result="BackgroundImageFix"/>
<feBlend mode="normal" in="SourceGraphic" in2="BackgroundImageFix" result="shape"/>
<feGaussianBlur stdDeviation="2" result="effect1_foregroundBlur_509_710"/>
</filter>
</defs>
</svg>
