<svg width="26" height="22" viewBox="0 0 26 22" fill="none" xmlns="http://www.w3.org/2000/svg">
<path d="M12.907 10.658V10.3563V5.43201C12.907 5.34664 12.869 5.24944 12.7749 5.16677C12.6788 5.08229 12.536 5.02576 12.3758 5.02576C12.2155 5.02576 12.0728 5.08229 11.9766 5.16677C11.8826 5.24944 11.8445 5.34665 11.8445 5.43201V10.8695V10.8697C11.8445 10.9266 11.861 10.9869 11.8986 11.0453L11.4781 11.3159L11.8986 11.0453C11.9366 11.1044 11.9963 11.1612 12.0779 11.2043L12.907 10.658ZM12.907 10.658L13.1738 10.7986L17.8297 13.2533L12.907 10.658ZM17.2341 13.9231L12.0781 11.2045L17.8299 13.2534C17.9561 13.3201 18.0267 13.4166 18.0519 13.5054C18.0762 13.5911 18.0635 13.6851 18.0035 13.7729C17.9412 13.864 17.8277 13.9458 17.6747 13.9794C17.5215 14.013 17.3616 13.9903 17.2343 13.9232L17.2341 13.9231ZM23.3627 6.00886L24.2195 6.88155V5.65857V3.61951C24.2195 3.53414 24.2576 3.43694 24.3516 3.35428C24.4478 3.26979 24.5905 3.21326 24.7508 3.21326C24.911 3.21326 25.0538 3.26979 25.1499 3.35427C25.244 3.43694 25.282 3.53414 25.282 3.61951V8.15076C25.282 8.23612 25.244 8.33333 25.1499 8.41599C25.0538 8.50048 24.911 8.55701 24.7508 8.55701H19.5945C19.4343 8.55701 19.2915 8.50048 19.1954 8.41599C19.1013 8.33333 19.0633 8.23612 19.0633 8.15076C19.0633 8.0654 19.1013 7.96819 19.1954 7.88553C19.2915 7.80104 19.4343 7.74451 19.5945 7.74451H22.5594H23.7424L22.918 6.89606C21.9851 5.93606 21.0571 5.02774 19.9965 4.0842L19.9939 4.08197C18.4874 2.76003 16.5784 1.86318 14.5077 1.49542C12.4371 1.12767 10.2886 1.30375 8.32838 2.00346C6.36807 2.70321 4.67598 3.89838 3.46981 5.44871C2.26288 7.00001 1.59722 8.83733 1.56606 10.7314C1.5349 12.6256 2.1399 14.4798 3.29604 16.0621C4.45141 17.6434 6.10437 18.8816 8.04149 19.6311C9.97849 20.3806 12.1205 20.611 14.2021 20.2961C16.2836 19.9811 18.2206 19.1334 19.7691 17.851L19.7696 17.8505C19.8186 17.8099 19.8795 17.7754 19.9501 17.7517C20.0208 17.728 20.0977 17.7163 20.1759 17.7183C20.2541 17.7202 20.3296 17.7357 20.3979 17.7625C20.4661 17.7894 20.5237 17.8262 20.5689 17.8683C20.614 17.9102 20.6454 17.9559 20.6649 18.0009C20.6844 18.0457 20.6926 18.0909 20.6912 18.1347C20.6898 18.1786 20.6786 18.224 20.6557 18.2689L21.1012 18.4959L20.6557 18.2689C20.6328 18.3139 20.5977 18.3591 20.549 18.3996C18.8538 19.8053 16.7177 20.7463 14.4055 21.0971C12.0934 21.4479 9.71581 21.1918 7.57198 20.3629C5.42827 19.5341 3.62004 18.1724 2.36623 16.4568C1.11317 14.7422 0.467793 12.7489 0.501237 10.7253C0.534683 8.70171 1.24575 6.72488 2.55571 5.04205C3.86642 3.35825 5.7198 2.04267 7.89066 1.26871C10.0616 0.494714 12.4468 0.299441 14.7461 0.709076C17.0448 1.11862 19.1477 2.11308 20.7947 3.56022C21.7247 4.38762 22.5515 5.18261 23.3627 6.00886Z" stroke="white"/>
</svg>
